<?xml version="1.0" standalone="no"?>
<!DOCTYPE svg PUBLIC "-//W3C//DTD SVG 20010904//EN"
 "http://www.w3.org/TR/2001/REC-SVG-20010904/DTD/svg10.dtd">
<svg version="1.0" xmlns="http://www.w3.org/2000/svg"
 width="481.000000pt" height="280.000000pt" viewBox="0 0 481.000000 280.000000"
 preserveAspectRatio="xMidYMid meet">

<g transform="translate(0.000000,280.000000) scale(0.100000,-0.100000)"
fill="#000000" stroke="none">
<path d="M2279 2296 c-108 -30 -239 -136 -239 -192 l0 -24 805 0 c468 0 805 4
805 9 0 5 -22 57 -50 115 l-49 106 -613 -1 c-463 -1 -624 -4 -659 -13z"/>
<path d="M1953 1959 c-34 -4 -81 -16 -105 -27 -78 -34 -363 -258 -557 -436
-44 -41 -93 -77 -108 -80 -16 -3 -97 -12 -181 -21 -314 -32 -591 -79 -652
-110 -60 -31 -89 -112 -97 -271 l-6 -111 -41 -14 c-61 -21 -81 -67 -81 -184 1
-109 24 -191 66 -240 l31 -35 119 0 119 0 0 88 c0 154 42 263 139 360 171 172
466 170 630 -3 88 -92 130 -211 131 -363 l0 -72 698 2 697 3 6 85 c14 200 113
355 279 434 61 29 72 31 180 31 103 0 121 -3 170 -26 158 -75 252 -229 267
-441 l6 -88 166 0 c143 0 171 3 201 18 71 38 110 159 110 344 l0 106 100 4
c154 5 144 -18 148 348 4 398 8 390 -176 390 -139 0 -142 -3 -142 -136 0 -95
-2 -104 -19 -104 -15 0 -29 30 -76 168 -89 257 -105 288 -181 339 -77 53 -84
53 -964 52 -448 -1 -843 -5 -877 -10z m483 -102 c2 -7 -7 -107 -21 -222 -14
-116 -28 -235 -31 -265 -4 -30 -11 -61 -17 -67 -7 -10 -109 -13 -451 -13 -246
0 -447 4 -455 9 -12 8 -10 20 12 73 68 159 234 352 377 436 94 56 127 61 363
62 167 0 219 -3 223 -13z m657 6 c9 -14 40 -540 34 -557 -6 -14 -38 -16 -307
-16 -267 0 -301 2 -307 16 -3 9 -1 58 6 109 6 52 20 171 31 265 11 95 23 176
26 181 6 11 511 12 517 2z m515 -14 c60 -16 105 -62 132 -134 35 -94 100 -408
87 -417 -17 -11 -555 -10 -561 1 -6 9 -29 268 -43 475 l-6 99 174 -6 c96 -3
193 -11 217 -18z"/>
<path d="M799 885 c-104 -33 -189 -116 -229 -222 -30 -81 -25 -195 12 -275 34
-73 103 -142 176 -176 49 -23 70 -27 147 -27 77 0 98 4 145 26 82 39 135 90
172 167 31 62 33 74 33 167 0 95 -2 103 -34 163 -64 118 -168 183 -301 189
-47 2 -92 -3 -121 -12z m61 -240 l0 -65 -65 0 c-36 0 -65 3 -65 6 0 19 45 82
73 102 50 35 57 30 57 -43z m145 45 c35 -21 57 -50 69 -87 7 -22 5 -23 -58
-23 l-66 0 0 65 c0 72 5 76 55 45z m-145 -255 c0 -77 -10 -82 -65 -34 -31 28
-65 76 -65 94 0 3 29 5 65 5 l65 0 0 -65z m220 60 c0 -22 -47 -89 -73 -105
-52 -32 -57 -27 -57 45 l0 65 65 0 c36 0 65 -2 65 -5z"/>
<path d="M3091 880 c-96 -35 -162 -94 -206 -184 -55 -112 -44 -250 26 -355
101 -151 291 -202 454 -122 266 131 265 511 -3 643 -86 42 -187 49 -271 18z
m77 -232 l-3 -63 -67 -3 -67 -3 10 30 c13 38 82 101 110 101 18 0 20 -5 17
-62z m132 47 c31 -16 63 -56 74 -92 7 -22 5 -23 -58 -23 l-66 0 0 65 c0 70 4
74 50 50z m-132 -262 c3 -59 2 -63 -19 -63 -28 0 -109 81 -109 109 0 21 4 22
63 19 l62 -3 3 -62z m206 45 c-15 -51 -75 -108 -114 -108 -6 0 -10 26 -10 65
l0 65 66 0 c63 0 65 -1 58 -22z"/>
</g>
</svg>
