<?xml version="1.0" encoding="UTF-8"?>
<!DOCTYPE svg PUBLIC "-//W3C//DTD SVG 1.1//EN" "http://www.w3.org/Graphics/SVG/1.1/DTD/svg11.dtd">
<svg xmlns="http://www.w3.org/2000/svg" version="1.1" width="481px" height="280px" style="shape-rendering:geometricPrecision; text-rendering:geometricPrecision; image-rendering:optimizeQuality; fill-rule:evenodd; clip-rule:evenodd" xmlns:xlink="http://www.w3.org/1999/xlink">
<g><path style="opacity:1" fill="#fdfdfd" d="M -0.5,-0.5 C 159.833,-0.5 320.167,-0.5 480.5,-0.5C 480.5,92.8333 480.5,186.167 480.5,279.5C 320.167,279.5 159.833,279.5 -0.5,279.5C -0.5,186.167 -0.5,92.8333 -0.5,-0.5 Z"/></g>
<g><path style="opacity:1" fill="#070707" d="M 229.5,48.5 C 271.505,48.1668 313.505,48.5001 355.5,49.5C 359.035,55.9042 362.035,62.5709 364.5,69.5C 364.392,70.4419 364.059,71.2753 363.5,72C 310.5,72.6667 257.5,72.6667 204.5,72C 203.409,69.9361 203.242,67.7695 204,65.5C 210.814,57.1849 219.314,51.5183 229.5,48.5 Z"/></g>
<g><path style="opacity:1" fill="#030303" d="M 402.5,137.5 C 403.568,138.434 404.901,138.768 406.5,138.5C 406.5,131.833 406.5,125.167 406.5,118.5C 406.574,116.589 407.574,115.422 409.5,115C 417.167,114.333 424.833,114.333 432.5,115C 435,116.167 436.833,118 438,120.5C 438.966,141.897 438.633,163.231 437,184.5C 435.786,186.049 434.286,187.215 432.5,188C 426.175,188.5 419.842,188.666 413.5,188.5C 414.572,201.838 413.072,214.838 409,227.5C 407.668,229.66 406.168,231.66 404.5,233.5C 402.821,233.892 401.154,234.392 399.5,235C 388.172,235.5 376.838,235.667 365.5,235.5C 365.819,230.637 365.486,225.97 364.5,221.5C 360.375,193.269 344.042,179.269 315.5,179.5C 312.848,179.41 310.515,180.076 308.5,181.5C 290.929,188.256 280.095,200.923 276,219.5C 275.501,224.823 275.334,230.156 275.5,235.5C 228.833,235.5 182.167,235.5 135.5,235.5C 135.823,228.978 135.49,222.645 134.5,216.5C 134.59,213.848 133.924,211.515 132.5,209.5C 128.662,196.329 120.328,187.329 107.5,182.5C 105.383,180.345 102.716,179.345 99.5,179.5C 71.2579,176.866 53.4246,189.199 46,216.5C 45.5004,223.158 45.3337,229.825 45.5,236.5C 37.4931,236.666 29.4931,236.5 21.5,236C 18.6193,234.749 16.786,232.583 16,229.5C 11.1918,218.008 10.5251,206.342 14,194.5C 16.6171,191.015 20.1171,189.348 24.5,189.5C 24.1241,180.765 24.6241,172.098 26,163.5C 26.9326,157.801 29.7659,153.301 34.5,150C 51.5825,145.602 68.9159,142.769 86.5,141.5C 91.7312,141.556 96.7312,140.889 101.5,139.5C 107.871,138.996 114.205,138.162 120.5,137C 138.999,119.159 158.666,102.825 179.5,88C 183.95,85.7388 188.617,84.0722 193.5,83C 252.545,82.0157 311.545,82.349 370.5,84C 378.013,85.8378 383.847,90.0045 388,96.5C 393.297,110.035 398.131,123.702 402.5,137.5 Z"/></g>
<g><path style="opacity:1" fill="#fbfbfb" d="M 312.5,149.5 C 292.167,149.5 271.833,149.5 251.5,149.5C 251.701,143.491 252.034,137.491 252.5,131.5C 252.885,124.803 253.552,118.136 254.5,111.5C 255.889,106.731 256.556,101.731 256.5,96.5C 256.33,95.1779 256.663,94.0113 257.5,93C 274.5,92.3333 291.5,92.3333 308.5,93C 309.249,94.7337 309.749,96.567 310,98.5C 310.427,115.53 311.26,132.53 312.5,149.5 Z"/></g>
<g><path style="opacity:1" fill="#fcfcfc" d="M 374.5,111.5 C 374.41,114.152 375.076,116.485 376.5,118.5C 379.395,128.666 381.395,138.999 382.5,149.5C 363.5,149.5 344.5,149.5 325.5,149.5C 324.553,130.472 323.22,111.472 321.5,92.5C 333.52,92.4771 345.52,92.9771 357.5,94C 367.059,96.059 372.726,101.892 374.5,111.5 Z"/></g>
<g><path style="opacity:1" fill="#fcfcfc" d="M 242.5,105.5 C 240.625,114.287 239.292,123.287 238.5,132.5C 238.304,138.099 237.638,143.599 236.5,149C 206.168,149.5 175.835,149.667 145.5,149.5C 146.085,144.578 147.585,139.911 150,135.5C 160.216,118.284 174.049,104.784 191.5,95C 193.5,94.3333 195.5,93.6667 197.5,93C 212.5,92.3333 227.5,92.3333 242.5,93C 243.249,97.0866 243.249,101.253 242.5,105.5 Z"/></g>
<g><path style="opacity:1" fill="#808080" d="M 256.5,96.5 C 256.556,101.731 255.889,106.731 254.5,111.5C 254.444,106.269 255.111,101.269 256.5,96.5 Z"/></g>
<g><path style="opacity:1" fill="#909090" d="M 374.5,111.5 C 375.924,113.515 376.59,115.848 376.5,118.5C 375.076,116.485 374.41,114.152 374.5,111.5 Z"/></g>
<g><path style="opacity:1" fill="#555555" d="M 242.5,105.5 C 242.082,114.767 240.748,123.767 238.5,132.5C 239.292,123.287 240.625,114.287 242.5,105.5 Z"/></g>
<g><path style="opacity:1" fill="#939393" d="M 406.5,118.5 C 406.5,125.167 406.5,131.833 406.5,138.5C 404.901,138.768 403.568,138.434 402.5,137.5C 403.5,137.5 404.5,137.5 405.5,137.5C 405.177,130.978 405.51,124.645 406.5,118.5 Z"/></g>
<g><path style="opacity:1" fill="#474747" d="M 101.5,139.5 C 96.7312,140.889 91.7312,141.556 86.5,141.5C 91.2688,140.111 96.2688,139.444 101.5,139.5 Z"/></g>
<g><path style="opacity:1" fill="#7b7b7b" d="M 252.5,131.5 C 252.034,137.491 251.701,143.491 251.5,149.5C 271.833,149.5 292.167,149.5 312.5,149.5C 292.007,150.497 271.34,150.831 250.5,150.5C 250.239,143.928 250.906,137.594 252.5,131.5 Z"/></g>
<g><path style="opacity:1" fill="#5a5a5a" d="M 99.5,179.5 C 102.716,179.345 105.383,180.345 107.5,182.5C 104.603,181.871 101.936,180.871 99.5,179.5 Z"/></g>
<g><path style="opacity:1" fill="#8a8a8a" d="M 315.5,179.5 C 313.485,180.924 311.152,181.59 308.5,181.5C 310.515,180.076 312.848,179.41 315.5,179.5 Z"/></g>
<g><path style="opacity:1" fill="#060606" d="M 54.5,231.5 C 54.2319,225.044 54.8986,218.711 56.5,212.5C 67.0334,190.745 83.7001,184.245 106.5,193C 125.937,205.039 131.104,221.539 122,242.5C 111.573,259.163 96.7395,264.996 77.5,260C 64.843,254.511 57.1763,245.011 54.5,231.5 Z"/></g>
<g><path style="opacity:1" fill="#050505" d="M 354.5,214.5 C 355.275,219.797 355.608,225.13 355.5,230.5C 350.362,253.418 336.028,263.584 312.5,261C 292.366,254.664 283.033,240.83 284.5,219.5C 285.924,217.485 286.59,215.152 286.5,212.5C 294.548,194.986 308.214,187.486 327.5,190C 340.792,193.459 349.792,201.626 354.5,214.5 Z"/></g>
<g><path style="opacity:1" fill="#f1f1f1" d="M 82.5,208.5 C 83.5,208.5 84.5,208.5 85.5,208.5C 85.5,212.833 85.5,217.167 85.5,221.5C 81.5,221.5 77.5,221.5 73.5,221.5C 73.372,219.345 73.872,217.345 75,215.5C 77.3959,212.933 79.8959,210.6 82.5,208.5 Z"/></g>
<g><path style="opacity:1" fill="#eeeeee" d="M 94.5,208.5 C 100.69,210.352 105.023,214.352 107.5,220.5C 103.217,221.492 98.8839,221.826 94.5,221.5C 94.5,217.167 94.5,212.833 94.5,208.5 Z"/></g>
<g><path style="opacity:1" fill="#f5f5f5" d="M 315.5,208.5 C 315.5,212.5 315.5,216.5 315.5,220.5C 311.5,220.5 307.5,220.5 303.5,220.5C 305.167,214.167 309.167,210.167 315.5,208.5 Z"/></g>
<g><path style="opacity:1" fill="#ededed" d="M 324.5,208.5 C 331.167,210.5 335.5,214.833 337.5,221.5C 333.167,221.5 328.833,221.5 324.5,221.5C 324.5,217.167 324.5,212.833 324.5,208.5 Z"/></g>
<g><path style="opacity:1" fill="#9c9c9c" d="M 132.5,209.5 C 133.924,211.515 134.59,213.848 134.5,216.5C 133.076,214.485 132.41,212.152 132.5,209.5 Z"/></g>
<g><path style="opacity:1" fill="#5a5a5a" d="M 286.5,212.5 C 286.59,215.152 285.924,217.485 284.5,219.5C 284.41,216.848 285.076,214.515 286.5,212.5 Z"/></g>
<g><path style="opacity:1" fill="#a2a2a2" d="M 315.5,208.5 C 316.485,212.634 316.818,216.968 316.5,221.5C 311.968,221.818 307.634,221.485 303.5,220.5C 307.5,220.5 311.5,220.5 315.5,220.5C 315.5,216.5 315.5,212.5 315.5,208.5 Z"/></g>
<g><path style="opacity:1" fill="#7a7a7a" d="M 56.5,212.5 C 54.8986,218.711 54.2319,225.044 54.5,231.5C 52.8255,224.942 53.4922,218.609 56.5,212.5 Z"/></g>
<g><path style="opacity:1" fill="#6b6b6b" d="M 354.5,214.5 C 356.006,217.356 356.672,220.523 356.5,224C 356.496,226.361 356.163,228.527 355.5,230.5C 355.608,225.13 355.275,219.797 354.5,214.5 Z"/></g>
<g><path style="opacity:1" fill="#f0f0f0" d="M 73.5,229.5 C 77.5,229.5 81.5,229.5 85.5,229.5C 85.5,233.833 85.5,238.167 85.5,242.5C 78.7286,240.728 74.7286,236.395 73.5,229.5 Z"/></g>
<g><path style="opacity:1" fill="#f0f0f0" d="M 94.5,229.5 C 109.021,227.082 111.021,230.582 100.5,240C 98.7834,241.559 96.7834,242.392 94.5,242.5C 94.5,238.167 94.5,233.833 94.5,229.5 Z"/></g>
<g><path style="opacity:1" fill="#f1f1f1" d="M 303.5,229.5 C 307.5,229.5 311.5,229.5 315.5,229.5C 315.5,233.833 315.5,238.167 315.5,242.5C 308.756,240.754 304.756,236.421 303.5,229.5 Z"/></g>
<g><path style="opacity:1" fill="#f0f0f0" d="M 324.5,229.5 C 328.884,229.174 333.217,229.508 337.5,230.5C 335.023,236.648 330.69,240.648 324.5,242.5C 324.5,238.167 324.5,233.833 324.5,229.5 Z"/></g>
<g><path style="opacity:1" fill="#bcbcbc" d="M 364.5,221.5 C 365.486,225.97 365.819,230.637 365.5,235.5C 376.838,235.667 388.172,235.5 399.5,235C 401.154,234.392 402.821,233.892 404.5,233.5C 403.653,234.966 402.32,235.8 400.5,236C 388.505,236.5 376.505,236.667 364.5,236.5C 364.5,231.5 364.5,226.5 364.5,221.5 Z"/></g>
</svg>
